mtllib materials.mtl
v -0.1420568 -0.04142308 0.2469585
v -0.1314614 -0.005562305 0.2611622
v 0.2910503 -0.02477539 -0.00551182
v 0.2804548 -0.06063604 -0.01971537
v -0.1606373 -0.02376962 0.2162483
v 0.2618743 -0.0429827 -0.05042565
v 0.2631796 0.001704812 -0.05157721
v -0.1593319 0.02091777 0.2150967
v -0.1487365 0.05677855 0.2293003
v -0.1255109 0.03471172 0.2676882
v 0.2970007 0.01549864 0.001014233
v 0.273775 0.03756547 -0.03737354
v 0.2354047 -0.172839 -0.08300757
v 0.1931536 -0.1709177 -0.05634028
v 0.24878 0.01735127 0.01822871
v 0.2910311 0.01542985 -0.008438647
v 0.2307596 -0.1684257 -0.09068519
v 0.286386 0.01984322 -0.0161162
v 0.2441349 0.02176452 0.01055115
v 0.1885085 -0.1665044 -0.06401783
v 0.2006148 -0.212483 -0.09777272
v 0.2052599 -0.2168964 -0.09009516
v 0.1921646 -0.2120988 -0.09243929
v 0.1968098 -0.2165122 -0.08476174
v 0.03833696 0.0611707 0.06601572
v 0.05014512 0.05691981 0.05642802
v 0.06976837 0.0382756 0.08886182
v 0.05796021 0.04252636 0.09844959
v 0.05662379 0.04647887 0.04650635
v 0.07624701 0.02783465 0.07894021
v 0.05603701 0.03264534 0.03890932
v 0.07566023 0.01400113 0.07134318
v 0.04854199 0.01912594 0.03567249
v 0.06816524 0.0004817247 0.06810635
v 0.03614706 0.009543061 0.03766316
v 0.05577031 -0.009101033 0.07009703
v 0.0221734 0.00646472 0.044348
v 0.04179665 -0.01217949 0.07678187
v 0.01036525 0.0107156 0.05393571
v 0.0299885 -0.007928729 0.08636957
v 0.00388658 0.02115655 0.06385732
v 0.02350983 0.002512336 0.09629118
v 0.004473388 0.03499007 0.07145441
v 0.02409661 0.01634586 0.1038882
v 0.01196837 0.04850948 0.07469124
v 0.03159162 0.02986526 0.107125
v 0.02436331 0.05809224 0.0727005
v 0.04398656 0.03944802 0.1051344
v -0.299385 0.3308654 -0.4488897
v -0.2941961 0.340225 -0.4466488
v -0.1383005 0.1921072 -0.1889803
v -0.1434894 0.1827476 -0.1912212
v -0.285615 0.3468592 -0.448027
v -0.1297194 0.1987414 -0.1903585
v -0.2759409 0.3489904 -0.452655
v -0.1200453 0.2008727 -0.1949865
v -0.2677661 0.3460475 -0.4592927
v -0.1118704 0.1979297 -0.2016242
v -0.2632808 0.3388191 -0.4661615
v -0.1073852 0.1907014 -0.2084929
v -0.263687 0.3292421 -0.4714209
v -0.1077914 0.1811243 -0.2137524
v -0.2688759 0.3198825 -0.4736618
v -0.1129802 0.1717647 -0.2159933
v -0.277457 0.3132483 -0.4722837
v -0.1215613 0.1651305 -0.2146151
v -0.2871311 0.3111171 -0.4676558
v -0.1312355 0.1629993 -0.2099872
v -0.295306 0.31406 -0.4610181
v -0.1394103 0.1659422 -0.2033495
v -0.2997912 0.3212883 -0.4541492
v -0.1438956 0.1731706 -0.1964807
v 0.01240641 0.0346297 0.0664475
v 0.01759523 0.0439893 0.06868839
v 0.02617633 0.05062354 0.06731021
v 0.03585041 0.05275476 0.06268227
v 0.0440253 0.04981184 0.05604458
v 0.04851049 0.04258347 0.04917574
v 0.04810429 0.03300643 0.04391623
v 0.04291543 0.02364683 0.04167539
v 0.03433433 0.0170126 0.04305357
v 0.02466026 0.01488137 0.04768151
v 0.01648539 0.01782429 0.05431914
v 0.01200014 0.02505267 0.06118798
v -0.2902574 0.3383404 -0.4745704
v -0.2943752 0.3323081 -0.4738874
v -0.2915793 0.3313016 -0.4761577
v -0.2959093 0.3347803 -0.4715382
v -0.2957703 0.3380558 -0.4697393
v -0.2939957 0.341257 -0.4689729
v -0.2910607 0.3435261 -0.4694443
v -0.287752 0.344255 -0.4710271
v -0.284956 0.3432485 -0.4732974
v -0.283422 0.3407762 -0.4756466
v -0.2835609 0.3375007 -0.4774455
v -0.2853357 0.3342994 -0.4782119
v -0.2882705 0.3320304 -0.4777405
v -0.296813 0.3258789 -0.4713309
v -0.2915583 0.3239872 -0.4755975
v -0.2996961 0.3305252 -0.4669157
v -0.299435 0.3366812 -0.463535
v -0.2960997 0.3426975 -0.4620945
v -0.2905838 0.3469619 -0.4629805
v -0.2843655 0.3483317 -0.4659553
v -0.2791107 0.3464401 -0.4702219
v -0.2762277 0.3417938 -0.474637
v -0.2764888 0.3356378 -0.4780178
v -0.2798241 0.3296216 -0.4794582
v -0.28534 0.3253572 -0.4785724
v -0.2972767 0.3198284 -0.4672091
v -0.290197 0.3172798 -0.4729575
v -0.301161 0.3260883 -0.4612606
v -0.3008092 0.3343823 -0.4567057
v -0.2963156 0.3424879 -0.454765
v -0.2888841 0.3482333 -0.4559585
v -0.2805061 0.3500791 -0.4599664
v -0.2734264 0.3475305 -0.4657148
v -0.2695421 0.3412704 -0.4716635
v -0.2698939 0.3329765 -0.4762182
v -0.2743876 0.3248708 -0.478159
v -0.281819 0.3191254 -0.4769654
v -0.2957103 0.3148863 -0.4620192
v -0.2876596 0.3119881 -0.4685559
v -0.3001274 0.3220049 -0.4552547
v -0.2997273 0.3314364 -0.4500751
v -0.2946173 0.3406538 -0.4478682
v -0.2861665 0.3471873 -0.4492255
v -0.2766395 0.3492861 -0.4537832
v -0.2685888 0.346388 -0.46032
v -0.2641717 0.3392694 -0.4670844
v -0.2645717 0.3298378 -0.4722641
v -0.2696818 0.3206204 -0.4744709
v -0.2781325 0.314087 -0.4731137
v -0.2923027 0.3116487 -0.456387
v -0.284252 0.3087506 -0.4629239
v -0.2967198 0.3187673 -0.4496226
v -0.2963198 0.3281989 -0.444443
v -0.2912098 0.3374163 -0.4422362
v -0.282759 0.3439497 -0.4435934
v -0.2732319 0.3460486 -0.4481511
v -0.2651812 0.3431504 -0.4546878
v -0.2607641 0.3360318 -0.4614524
v -0.2611642 0.3266003 -0.4666319
v -0.2662742 0.3173829 -0.4688388
v -0.274725 0.3108494 -0.4674815
v -0.2874651 0.3105062 -0.4509922
v -0.2803854 0.3079576 -0.4567406
v -0.2913494 0.3167663 -0.4450436
v -0.2909976 0.3250602 -0.4404888
v -0.2865039 0.3331659 -0.4385481
v -0.2790725 0.3389113 -0.4397416
v -0.2706945 0.3407569 -0.4437495
v -0.2636148 0.3382083 -0.4494979
v -0.2597305 0.3319484 -0.4554465
v -0.2600823 0.3236544 -0.4600013
v -0.264576 0.3155488 -0.4619421
v -0.2720074 0.3098034 -0.4607484
v -0.2817808 0.3115966 -0.4464852
v -0.276526 0.3097049 -0.4507518
v -0.2846638 0.3162429 -0.44207
v -0.2844027 0.3223989 -0.4386892
v -0.2810674 0.3284152 -0.4372488
v -0.2755516 0.3326795 -0.4381347
v -0.2693332 0.3340495 -0.4411095
v -0.2640784 0.3321579 -0.4453762
v -0.2611954 0.3275115 -0.4497913
v -0.2614565 0.3213555 -0.4531721
v -0.2647918 0.3153392 -0.4546125
v -0.2703077 0.3110749 -0.4537265
v -0.2759355 0.3147882 -0.4434097
v -0.2731395 0.3137817 -0.4456799
v -0.2774695 0.3172605 -0.4410604
v -0.2773306 0.320536 -0.4392616
v -0.2755558 0.3237373 -0.4384952
v -0.272621 0.3260063 -0.4389665
v -0.2693122 0.3267351 -0.4405494
v -0.2665163 0.3257287 -0.4428196
v -0.2649822 0.3232564 -0.4451689
v -0.2651212 0.3199809 -0.4469677
v -0.2668958 0.3167797 -0.4477341
v -0.2698308 0.3145106 -0.4472628
v -0.2706341 0.3196963 -0.4421366
v 0.1593526 -0.1693809 -0.03500628
v 0.1171016 -0.1674596 -0.008338988
v 0.1727279 0.02080929 0.06623
v 0.214979 0.018888 0.03956264
v 0.1547075 -0.1649675 -0.0426839
v 0.2103339 0.02330148 0.03188509
v 0.1680828 0.02522266 0.05855244
v 0.1124564 -0.1630462 -0.01601654
v 0.1245627 -0.2090249 -0.04977143
v 0.1292078 -0.2134383 -0.04209387
v 0.1161125 -0.2086407 -0.044438
v 0.1207577 -0.2130541 -0.03676045
v 0.08330053 -0.1659225 0.01299489
v 0.04104942 -0.1640012 0.03966218
v 0.09667584 0.02426779 0.1142312
v 0.1389269 0.02234638 0.08756381
v 0.07865539 -0.1615092 0.005317271
v 0.1342818 0.02675974 0.07988626
v 0.0920307 0.02868104 0.1065536
v 0.03640431 -0.1595879 0.03198463
v 0.04851058 -0.2055665 -0.001770258
v 0.05315572 -0.2099799 0.005907297
v 0.0400604 -0.2051823 0.003563166
v 0.04470557 -0.2095957 0.01124072
v 0.007248461 -0.1624641 0.06099617
v -0.03500265 -0.1605428 0.08766347
v 0.02062377 0.02772605 0.1622325
v 0.06287482 0.02580476 0.1355651
v 0.002603352 -0.1580508 0.05331856
v 0.05822974 0.03021824 0.1278875
v 0.01597863 0.03213942 0.1545549
v -0.03964776 -0.1561295 0.07998592
v -0.02754146 -0.2021081 0.04623103
v -0.02289635 -0.2065215 0.05390859
v -0.03599167 -0.2017239 0.05156446
v -0.0313465 -0.2061373 0.05924201
v -0.1448557 -0.1555476 0.1569986
v -0.1871068 -0.1536263 0.1836659
v -0.1314805 0.03464258 0.2582349
v -0.08922935 0.03272128 0.2315676
v -0.1495008 -0.1511343 0.149321
v -0.09387445 0.03713477 0.22389
v -0.1361255 0.03905594 0.2505574
v -0.191752 -0.149213 0.1759884
v -0.1796457 -0.1951916 0.1422335
v -0.1750005 -0.199605 0.149911
v -0.1880959 -0.1948074 0.1475669
v -0.1834507 -0.1992208 0.1552445
v -0.06880355 -0.1590058 0.1089973
v -0.1110547 -0.1570845 0.1356646
v -0.05542827 0.03118455 0.2102336
v -0.01317716 0.02926314 0.1835663
v -0.07344866 -0.1545924 0.1013197
v -0.01782227 0.03367651 0.1758887
v -0.06007332 0.0355978 0.2025561
v -0.1156998 -0.1526711 0.1279871
v -0.1035935 -0.1986498 0.0942322
v -0.09894836 -0.2030631 0.1019098
v -0.1120437 -0.1982656 0.09956563
v -0.1073985 -0.2026789 0.1072432
vn 0.4645112 -0.4413365 0.7677574
vn -0.5339329 -0.006191953 -0.8455042
vn -0.845023 0.0384261 0.5333476
vn 0.845023 -0.0384261 -0.5333476
vn -0.2648877 -0.8965186 -0.3550901
vn 0.2648877 0.8965186 0.3550901
vn -0.4645112 0.4413365 -0.7677574
vn 0.5148869 -0.2107216 0.830956
vn 0.4645114 -0.4413366 0.7677573
vn -0.4645114 0.4413366 -0.7677573
vn 0.6862073 -0.3686361 -0.6270782
vn 0.2648875 0.8965185 0.3550903
vn 0.8450229 -0.03842585 -0.5333476
vn -0.8450229 0.03842585 0.5333476
vn -0.4645113 0.4413366 -0.7677573
vn -0.8829607 -0.297282 0.3633232
vn 0.4645113 -0.4413366 0.7677573
vn -0.2648875 -0.8965185 -0.3550903
vn 0.4745702 0.8560248 0.2049506
vn 0.7848256 0.6067628 -0.126047
vn 0.8847875 0.1949191 -0.4232703
vn 0.7476715 -0.2691528 -0.6070783
vn 0.4102184 -0.6611053 -0.6282201
vn -0.03715308 -0.8759161 -0.4810309
vn -0.4745729 -0.8560238 -0.2049485
vn -0.7848246 -0.6067643 0.1260462
vn -0.8847875 -0.1949194 0.42327
vn -0.7476715 0.2691528 0.6070783
vn -0.4102178 0.6611053 0.6282207
vn 0.03715359 0.8759155 0.481032
vn -0.4645113 0.4413365 -0.7677574
vn 0.4645113 -0.4413365 0.7677574
vn -0.747672 0.2691518 0.6070783
vn -0.4102176 0.6611056 0.6282204
vn 0.03715706 0.8759166 0.4810297
vn 0.4745671 0.8560261 0.2049524
vn 0.7848253 0.6067631 -0.1260472
vn 0.8847874 0.1949192 -0.4232704
vn 0.7476717 -0.2691525 -0.6070784
vn 0.4102181 -0.6611053 -0.6282206
vn -0.03715709 -0.8759165 -0.4810298
vn -0.4745671 -0.8560261 -0.2049524
vn -0.784825 -0.6067634 0.1260469
vn -0.8847874 -0.1949188 0.4232707
vn -0.4645115 0.4413365 -0.7677573
vn 0.4645115 -0.4413365 0.7677573
vn 0.7476717 -0.2691525 -0.6070784
vn 0.4102181 -0.6611053 -0.6282206
vn -0.03715709 -0.8759165 -0.4810298
vn -0.4745671 -0.8560261 -0.2049524
vn -0.784825 -0.6067634 0.1260469
vn -0.8847874 -0.1949188 0.4232707
vn -0.747672 0.2691518 0.6070783
vn -0.4102176 0.6611056 0.6282204
vn 0.03715706 0.8759166 0.4810297
vn 0.4745671 0.8560261 0.2049524
vn 0.7848253 0.6067631 -0.1260472
vn 0.8847874 0.1949192 -0.4232704
vn -0.4645115 0.4413365 -0.7677573
vn -0.4645115 0.4413365 -0.7677573
vn -0.4645115 0.4413365 -0.7677573
vn -0.4645115 0.4413365 -0.7677573
vn -0.4645115 0.4413365 -0.7677573
vn -0.4645115 0.4413365 -0.7677573
vn -0.4645115 0.4413365 -0.7677573
vn -0.4645115 0.4413365 -0.7677573
vn -0.4645115 0.4413365 -0.7677573
vn -0.4645115 0.4413365 -0.7677573
vn -0.4645115 0.4413365 -0.7677573
vn -0.4645115 0.4413365 -0.7677573
vn -0.5270949 0.1080932 -0.8429039
vn -0.6594647 0.1557447 -0.7354251
vn -0.7320907 0.2727886 -0.6242032
vn -0.7255129 0.4278631 -0.5390401
vn -0.6414938 0.579416 -0.5027552
vn -0.5025463 0.686839 -0.5250709
vn -0.3459011 0.721348 -0.6000078
vn -0.2135314 0.6736965 -0.7074866
vn -0.1409054 0.5566527 -0.8187084
vn -0.1474832 0.4015782 -0.9038715
vn -0.2315022 0.2500253 -0.9401565
vn -0.3704498 0.1426022 -0.9178407
vn -0.5261028 -0.2381877 -0.8163838
vn -0.7748766 -0.1486322 -0.6143898
vn -0.9113688 0.0713384 -0.4053611
vn -0.8990067 0.362783 -0.2453069
vn -0.7411025 0.6476094 -0.1771135
vn -0.4799666 0.8494985 -0.2190533
vn -0.18557 0.9143544 -0.3598886
vn 0.06320378 0.8247988 -0.5618827
vn 0.199696 0.6048283 -0.7709113
vn 0.1873338 0.3133837 -0.9309655
vn 0.02942959 0.02855738 -0.9991588
vn -0.2317065 -0.173332 -0.957219
vn -0.461655 -0.5557396 -0.6913958
vn -0.7968271 -0.4350818 -0.41925
vn -0.9807227 -0.1387163 -0.1376264
vn -0.964067 0.253946 0.07801409
vn -0.7513233 0.6376916 0.1698908
vn -0.3994958 0.909696 0.1133854
vn -0.002856334 0.9970761 -0.07636144
vn 0.3323157 0.8764182 -0.3485073
vn 0.5162112 0.5800527 -0.6301308
vn 0.4995556 0.1873904 -0.8457712
vn 0.2868119 -0.1963551 -0.937648
vn -0.06501587 -0.4683597 -0.8811426
vn -0.3415248 -0.8062612 -0.4830152
vn -0.7226683 -0.6690542 -0.1735424
vn -0.9317866 -0.3320398 0.1467081
vn -0.9128467 0.1144793 0.3919254
vn -0.6709233 0.5508587 0.4964037
vn -0.2708399 0.8601707 0.4321482
vn 0.1802018 0.9595357 0.216376
vn 0.5613454 0.8223286 -0.09309693
vn 0.7704636 0.4853142 -0.4133473
vn 0.7515236 0.03879517 -0.6585646
vn 0.5096003 -0.3975841 -0.7630429
vn 0.1095165 -0.7068964 -0.6987873
vn -0.1802017 -0.9595358 -0.216376
vn -0.5613452 -0.8223287 0.09309685
vn -0.7704635 -0.4853143 0.4133473
vn -0.7515236 -0.03879518 0.6585646
vn -0.5096002 0.3975842 0.7630429
vn -0.1095168 0.7068962 0.6987875
vn 0.3415249 0.8062612 0.4830152
vn 0.7226685 0.6690541 0.1735424
vn 0.9317867 0.3320397 -0.1467081
vn 0.9128467 -0.1144793 -0.3919253
vn 0.6709235 -0.5508586 -0.4964036
vn 0.2708397 -0.8601709 -0.432148
vn 0.002856467 -0.9970762 0.07636151
vn -0.3323155 -0.8764184 0.3485073
vn -0.5162111 -0.5800528 0.6301309
vn -0.4995555 -0.1873905 0.8457713
vn -0.2868118 0.1963551 0.9376481
vn 0.06501573 0.4683596 0.8811427
vn 0.4616551 0.5557396 0.6913958
vn 0.7968272 0.4350817 0.4192499
vn 0.9807227 0.1387162 0.1376264
vn 0.9640671 -0.253946 -0.07801397
vn 0.7513234 -0.6376915 -0.1698907
vn 0.3994955 -0.9096961 -0.1133853
vn 0.18557 -0.9143544 0.3598886
vn -0.0632037 -0.8247989 0.5618826
vn -0.199696 -0.6048283 0.7709113
vn -0.1873338 -0.3133837 0.9309655
vn -0.02942957 -0.0285573 0.9991589
vn 0.2317063 0.1733318 0.9572191
vn 0.5261029 0.2381877 0.8163838
vn 0.7748767 0.1486321 0.6143897
vn 0.9113688 -0.07133842 0.4053611
vn 0.8990067 -0.362783 0.2453069
vn 0.7411025 -0.6476094 0.1771135
vn 0.4799664 -0.8494987 0.2190533
vn 0.3459012 -0.7213479 0.6000079
vn 0.2135315 -0.6736965 0.7074866
vn 0.1409055 -0.5566527 0.8187084
vn 0.1474833 -0.4015782 0.9038715
vn 0.2315024 -0.2500253 0.9401564
vn 0.3704498 -0.1426024 0.9178407
vn 0.5270949 -0.1080934 0.8429039
vn 0.6594646 -0.1557449 0.7354251
vn 0.7320906 -0.2727887 0.6242033
vn 0.7255128 -0.4278631 0.5390403
vn 0.6414938 -0.5794159 0.5027553
vn 0.5025462 -0.6868389 0.5250711
vn 0.4645114 -0.4413366 0.7677573
vn -0.4645114 0.4413366 -0.7677573
vn 0.6862073 -0.3686361 -0.6270782
vn 0.2648875 0.8965185 0.3550903
vn 0.8450229 -0.03842585 -0.5333476
vn -0.8450229 0.03842585 0.5333476
vn -0.4645113 0.4413366 -0.7677573
vn -0.8829607 -0.297282 0.3633232
vn 0.4645113 -0.4413366 0.7677573
vn -0.2648875 -0.8965185 -0.3550903
vn 0.4645114 -0.4413366 0.7677573
vn -0.4645114 0.4413366 -0.7677573
vn 0.6862073 -0.3686361 -0.6270782
vn 0.2648875 0.8965185 0.3550903
vn 0.8450229 -0.03842585 -0.5333476
vn -0.8450229 0.03842585 0.5333476
vn -0.4645113 0.4413366 -0.7677573
vn -0.8829607 -0.297282 0.3633232
vn 0.4645113 -0.4413366 0.7677573
vn -0.2648875 -0.8965185 -0.3550903
vn 0.4645114 -0.4413366 0.7677573
vn -0.4645114 0.4413366 -0.7677573
vn 0.6862073 -0.3686361 -0.6270782
vn 0.2648875 0.8965185 0.3550903
vn 0.8450229 -0.03842585 -0.5333476
vn -0.8450229 0.03842585 0.5333476
vn -0.4645113 0.4413366 -0.7677573
vn -0.8829607 -0.297282 0.3633232
vn 0.4645113 -0.4413366 0.7677573
vn -0.2648875 -0.8965185 -0.3550903
vn 0.4645114 -0.4413366 0.7677573
vn -0.4645114 0.4413366 -0.7677573
vn 0.6862073 -0.3686361 -0.6270782
vn 0.2648875 0.8965185 0.3550903
vn 0.8450229 -0.03842585 -0.5333476
vn -0.8450229 0.03842585 0.5333476
vn -0.4645113 0.4413366 -0.7677573
vn -0.8829607 -0.297282 0.3633232
vn 0.4645113 -0.4413366 0.7677573
vn -0.2648875 -0.8965185 -0.3550903
vn 0.4645114 -0.4413366 0.7677573
vn -0.4645114 0.4413366 -0.7677573
vn 0.6862073 -0.3686361 -0.6270782
vn 0.2648875 0.8965185 0.3550903
vn 0.8450229 -0.03842585 -0.5333476
vn -0.8450229 0.03842585 0.5333476
vn -0.4645113 0.4413366 -0.7677573
vn -0.8829607 -0.297282 0.3633232
vn 0.4645113 -0.4413366 0.7677573
vn -0.2648875 -0.8965185 -0.3550903
usemtl mat10
f 4//1 3//1 2//1 1//1
f 8//2 7//2 6//2 5//2
f 2//3 10//3 9//3 8//3 5//3 1//3
f 6//4 7//4 12//4 11//4 3//4 4//4
f 5//5 6//5 4//5 1//5
f 11//6 12//6 9//6 10//6
f 8//7 9//7 12//7 7//7
f 3//8 11//8 10//8 2//8
f 16//9 15//9 14//9 13//9
f 20//10 19//10 18//10 17//10
f 22//11 21//11 17//11 13//11
f 18//12 19//12 15//12 16//12
f 17//13 18//13 16//13 13//13
f 15//14 19//14 20//14 14//14
f 21//15 23//15 20//15 17//15
f 23//16 24//16 14//16 20//16
f 24//17 22//17 13//17 14//17
f 24//18 23//18 21//18 22//18
f 28//19 27//19 26//19 25//19
f 27//20 30//20 29//20 26//20
f 30//21 32//21 31//21 29//21
f 32//22 34//22 33//22 31//22
f 34//23 36//23 35//23 33//23
f 36//24 38//24 37//24 35//24
f 38//25 40//25 39//25 37//25
f 40//26 42//26 41//26 39//26
f 42//27 44//27 43//27 41//27
f 44//28 46//28 45//28 43//28
f 46//29 48//29 47//29 45//29
f 48//30 28//30 25//30 47//30
f 25//31 26//31 29//31 31//31 33//31 35//31 37//31 39//31 41//31 43//31 45//31 47//31
f 48//32 46//32 44//32 42//32 40//32 38//32 36//32 34//32 32//32 30//32 27//32 28//32
f 52//33 52//33 51//33 50//33 49//33
f 51//34 51//34 54//34 53//34 50//34
f 54//35 54//35 56//35 55//35 53//35
f 56//36 56//36 58//36 57//36 55//36
f 58//37 58//37 60//37 59//37 57//37
f 60//38 62//38 61//38 59//38
f 62//39 64//39 63//39 61//39
f 64//40 64//40 66//40 65//40 63//40
f 66//41 68//41 67//41 65//41
f 68//42 68//42 70//42 69//42 67//42
f 70//43 70//43 72//43 71//43 69//43
f 72//44 72//44 52//44 49//44 71//44
f 87//59 86//59 85//59
f 86//60 88//60 85//60
f 88//61 89//61 85//61
f 89//62 90//62 85//62
f 90//63 91//63 85//63
f 91//64 92//64 85//64
f 92//65 93//65 85//65
f 93//66 94//66 85//66
f 94//67 95//67 85//67
f 95//68 96//68 85//68
f 96//69 97//69 85//69
f 97//70 87//70 85//70
f 99//71 98//71 86//71 87//71
f 98//72 100//72 88//72 86//72
f 100//73 101//73 89//73 88//73
f 101//74 102//74 90//74 89//74
f 102//75 103//75 91//75 90//75
f 103//76 104//76 92//76 91//76
f 104//77 105//77 93//77 92//77
f 105//78 106//78 94//78 93//78
f 106//79 107//79 95//79 94//79
f 107//80 108//80 96//80 95//80
f 108//81 109//81 97//81 96//81
f 109//82 99//82 87//82 97//82
f 111//83 110//83 98//83 99//83
f 110//84 112//84 100//84 98//84
f 112//85 113//85 101//85 100//85
f 113//86 114//86 102//86 101//86
f 114//87 115//87 103//87 102//87
f 115//88 116//88 104//88 103//88
f 116//89 117//89 105//89 104//89
f 117//90 118//90 106//90 105//90
f 118//91 119//91 107//91 106//91
f 119//92 120//92 108//92 107//92
f 120//93 121//93 109//93 108//93
f 121//94 111//94 99//94 109//94
f 123//95 122//95 110//95 111//95
f 122//96 124//96 112//96 110//96
f 124//97 125//97 113//97 112//97
f 125//98 126//98 114//98 113//98
f 126//99 127//99 115//99 114//99
f 127//100 128//100 116//100 115//100
f 128//101 129//101 117//101 116//101
f 129//102 130//102 118//102 117//102
f 130//103 131//103 119//103 118//103
f 131//104 132//104 120//104 119//104
f 132//105 133//105 121//105 120//105
f 133//106 123//106 111//106 121//106
f 135//107 134//107 122//107 123//107
f 134//108 136//108 124//108 122//108
f 136//109 137//109 125//109 124//109
f 137//110 138//110 126//110 125//110
f 138//111 139//111 127//111 126//111
f 139//112 140//112 128//112 127//112
f 140//113 141//113 129//113 128//113
f 141//114 142//114 130//114 129//114
f 142//115 143//115 131//115 130//115
f 143//116 144//116 132//116 131//116
f 144//117 145//117 133//117 132//117
f 145//118 135//118 123//118 133//118
f 147//119 146//119 134//119 135//119
f 146//120 148//120 136//120 134//120
f 148//121 149//121 137//121 136//121
f 149//122 150//122 138//122 137//122
f 150//123 151//123 139//123 138//123
f 151//124 152//124 140//124 139//124
f 152//125 153//125 141//125 140//125
f 153//126 154//126 142//126 141//126
f 154//127 155//127 143//127 142//127
f 155//128 156//128 144//128 143//128
f 156//129 157//129 145//129 144//129
f 157//130 147//130 135//130 145//130
f 159//131 158//131 146//131 147//131
f 158//132 160//132 148//132 146//132
f 160//133 161//133 149//133 148//133
f 161//134 162//134 150//134 149//134
f 162//135 163//135 151//135 150//135
f 163//136 164//136 152//136 151//136
f 164//137 165//137 153//137 152//137
f 165//138 166//138 154//138 153//138
f 166//139 167//139 155//139 154//139
f 167//140 168//140 156//140 155//140
f 168//141 169//141 157//141 156//141
f 169//142 159//142 147//142 157//142
f 171//143 170//143 158//143 159//143
f 170//144 172//144 160//144 158//144
f 172//145 173//145 161//145 160//145
f 173//146 174//146 162//146 161//146
f 174//147 175//147 163//147 162//147
f 175//148 176//148 164//148 163//148
f 176//149 177//149 165//149 164//149
f 177//150 178//150 166//150 165//150
f 178//151 179//151 167//151 166//151
f 179//152 180//152 168//152 167//152
f 180//153 181//153 169//153 168//153
f 181//154 171//154 159//154 169//154
f 182//155 170//155 171//155
f 182//156 172//156 170//156
f 182//157 173//157 172//157
f 182//158 174//158 173//158
f 182//159 175//159 174//159
f 182//160 176//160 175//160
f 182//161 177//161 176//161
f 182//162 178//162 177//162
f 182//163 179//163 178//163
f 182//164 180//164 179//164
f 182//165 181//165 180//165
f 182//166 171//166 181//166
f 186//167 185//167 184//167 183//167
f 190//168 189//168 188//168 187//168
f 192//169 191//169 187//169 183//169
f 188//170 189//170 185//170 186//170
f 187//171 188//171 186//171 183//171
f 185//172 189//172 190//172 184//172
f 191//173 193//173 190//173 187//173
f 193//174 194//174 184//174 190//174
f 194//175 192//175 183//175 184//175
f 194//176 193//176 191//176 192//176
f 198//177 197//177 196//177 195//177
f 202//178 201//178 200//178 199//178
f 204//179 203//179 199//179 195//179
f 200//180 201//180 197//180 198//180
f 199//181 200//181 198//181 195//181
f 197//182 201//182 202//182 196//182
f 203//183 205//183 202//183 199//183
f 205//184 206//184 196//184 202//184
f 206//185 204//185 195//185 196//185
f 206//186 205//186 203//186 204//186
f 210//187 209//187 208//187 207//187
f 214//188 213//188 212//188 211//188
f 216//189 215//189 211//189 207//189
f 212//190 213//190 209//190 210//190
f 211//191 212//191 210//191 207//191
f 209//192 213//192 214//192 208//192
f 215//193 217//193 214//193 211//193
f 217//194 218//194 208//194 214//194
f 218//195 216//195 207//195 208//195
f 218//196 217//196 215//196 216//196
f 222//197 221//197 220//197 219//197
f 226//198 225//198 224//198 223//198
f 228//199 227//199 223//199 219//199
f 224//200 225//200 221//200 222//200
f 223//201 224//201 222//201 219//201
f 221//202 225//202 226//202 220//202
f 227//203 229//203 226//203 223//203
f 229//204 230//204 220//204 226//204
f 230//205 228//205 219//205 220//205
f 230//206 229//206 227//206 228//206
f 234//207 233//207 232//207 231//207
f 238//208 237//208 236//208 235//208
f 240//209 239//209 235//209 231//209
f 236//210 237//210 233//210 234//210
f 235//211 236//211 234//211 231//211
f 233//212 237//212 238//212 232//212
f 239//213 241//213 238//213 235//213
f 241//214 242//214 232//214 238//214
f 242//215 240//215 231//215 232//215
f 242//216 241//216 239//216 240//216
usemtl mat18
f 49//45 50//45 53//45 55//45 57//45 59//45 61//45 63//45 65//45 67//45 69//45 71//45
f 84//46 83//46 82//46 81//46 80//46 79//46 78//46 77//46 76//46 75//46 74//46 73//46
f 62//47 79//47 80//47 64//47
f 64//48 80//48 81//48 66//48
f 66//49 81//49 82//49 68//49
f 68//50 82//50 83//50 70//50
f 70//51 83//51 84//51 72//51
f 72//52 84//52 73//52 52//52
f 52//53 73//53 74//53 51//53
f 51//54 74//54 75//54 54//54
f 54//55 75//55 76//55 56//55
f 56//56 76//56 77//56 58//56
f 58//57 77//57 78//57 60//57
f 60//58 78//58 79//58 62//58
